HIERARCHY
ROOT Hips
{
	OFFSET	0.00	0.00	0.00
	CHANNELS 6 Xposition Yposition Zposition Zrotation Xrotation Yrotation
	JOINT LeftHip
	{
		OFFSET	 3.430000	 0.000000	 0.000000
		CHANNELS 3 Zrotation Xrotation Yrotation
		JOINT LeftKnee
		{
			OFFSET	 0.000000	-18.469999	 0.000000
			CHANNELS 3 Zrotation Xrotation Yrotation
			JOINT LeftAnkle
			{
				OFFSET	 0.000000	-17.950001	 0.000000
				CHANNELS 3 Zrotation Xrotation Yrotation
				End Site 
				{
					OFFSET	 0.000000	-3.119996	 0.000000
				}
			}
		}
	}
	JOINT RightHip
	{
		OFFSET	-3.430000	 0.000000	 0.000000
		CHANNELS 3 Zrotation Xrotation Yrotation
		JOINT RightKnee
		{
			OFFSET	 0.000000	-18.809999	 0.000000
			CHANNELS 3 Zrotation Xrotation Yrotation
			JOINT RightAnkle
			{
				OFFSET	 0.000000	-17.570000	 0.000000
				CHANNELS 3 Zrotation Xrotation Yrotation
				End Site 
				{
					OFFSET	 0.000000	-3.250000	 0.000000
				}
			}
		}
	}
	JOINT Chest
	{
		OFFSET	 0.000000	 4.570000	 0.000000
		CHANNELS 3 Zrotation Xrotation Yrotation
		JOINT LeftCollar
		{
			OFFSET	 1.060000	 15.330000	 1.760000
			CHANNELS 3 Zrotation Xrotation Yrotation
			JOINT LeftShoulder
			{
				OFFSET	 5.810000	 0.000000	 0.000000
				CHANNELS 3 Zrotation Xrotation Yrotation
				JOINT LeftElbow
				{
					OFFSET	 0.000000	-12.080000	 0.000000
					CHANNELS 3 Zrotation Xrotation Yrotation
					JOINT LeftWrist
					{
						OFFSET	 0.000000	-9.820000	 0.000000
						CHANNELS 3 Zrotation Xrotation Yrotation
						End Site 
						{
							OFFSET	 0.000000	-7.369996	 0.000000
						}
					}
				}
			}
		}
		JOINT RightCollar
		{
			OFFSET	-1.060000	 15.330000	 1.760000
			CHANNELS 3 Zrotation Xrotation Yrotation
			JOINT RightShoulder
			{
				OFFSET	-6.060000	 0.000000	 0.000000
				CHANNELS 3 Zrotation Xrotation Yrotation
				JOINT RightElbow
				{
					OFFSET	 0.000000	-11.900000	 0.000000
					CHANNELS 3 Zrotation Xrotation Yrotation
					JOINT RightWrist
					{
						OFFSET	 0.000000	-9.520000	 0.000000
						CHANNELS 3 Zrotation Xrotation Yrotation
						End Site 
						{
							OFFSET	 0.000000	-7.140012	 0.000000
						}
					}
				}
			}
		}
		JOINT Neck
		{
			OFFSET	 0.000000	 17.620001	 0.000000
			CHANNELS 3 Zrotation Xrotation Yrotation
			JOINT Head
			{
				OFFSET	 0.000000	 5.190000	 0.000000
				CHANNELS 3 Zrotation Xrotation Yrotation
				End Site 
				{
					OFFSET	 0.000000	 4.140008	 0.000000
				}
			}
		}
	}
}

MOTION
Frames: 16
Frame Time: 0.033333
11.3646 -0.769 -40.0837 -1.22246 1.04398 130.774 14.95 -16.05 15.4861 -2.31275 29.8621 -0.142293 -14.9521 -7.76851 -1.08879 -23.9644 -23.9124 -23.9625 6.27983 27.8415 -3.04733 0.744246 1.38511 3.0689 13.7456 23.7106 -6.99778 0 0 0 -4.92216 -36.3888 -4.88924 -51.7314 -38.8212 -34.2543 26.0436 -34.9761 -31.473 0 0 0 -36.9273 -24.0795 -30.9198 7.44477 -17.4244 6.65549 -25.4026 -26.1544 19.2977 0 0 0 -5.91517 -20.1634 -25.6628 
11.2715 -0.8227 -40.1075 -1.13811 1.03872 130.968 14.7064 -16.0096 15.538 -2.17704 29.8061 -0.337094 -14.854 -8.15179 -1.18134 -24.1785 -23.9328 -24.1606 6.30554 28.1672 -3.04079 0.851332 1.28 3.03536 13.7747 23.7887 -7.04325 0 0 0 -5.42713 -36.1811 -5.35088 -51.3673 -38.6527 -34.0577 25.5593 -35.0056 -32.0458 0 0 0 -36.5951 -23.9824 -30.6361 7.53042 -17.4932 6.7452 -25.4209 -26.2527 19.2959 0 0 0 -5.96138 -20.2366 -25.8118 
11.1742 -0.8643 -40.1321 -1.0487 1.05799 131.144 14.4711 -15.9545 15.6554 -2.06255 29.7075 -0.490234 -14.6992 -8.35351 -1.3197 -24.3775 -23.9147 -24.3425 6.33712 28.4189 -3.04731 0.932153 1.22019 3.03299 13.7523 23.8804 -7.05976 0 0 0 -5.68907 -35.8019 -5.66043 -51.0411 -38.4978 -33.9956 25.2582 -34.994 -32.3724 0 0 0 -36.2241 -23.8959 -30.4077 7.58598 -17.5508 6.80832 -25.0398 -26.4476 19.5608 0 0 0 -5.97121 -20.3117 -25.9597 
11.0821 -0.8965 -40.1622 -0.996135 1.07524 131.293 14.2817 -15.921 15.7689 -2.0012 29.6367 -0.537291 -14.5622 -8.48131 -1.50567 -24.6032 -23.8785 -24.4747 6.42131 28.591 -3.09433 1.00748 1.19233 3.03526 13.6795 23.9574 -7.03978 0 0 0 -5.79347 -35.3658 -5.84602 -50.5062 -38.1466 -33.6884 25.0218 -35.0153 -32.498 0 0 0 -35.7774 -23.8044 -30.1513 7.64281 -17.6015 6.84572 -24.7552 -26.6144 19.8196 0 0 0 -5.96154 -20.3741 -26.0896 
10.8812 -0.9492 -40.2275 -0.92511 1.12521 131.616 13.7971 -15.9272 15.8328 -1.81705 29.4905 -0.714703 -14.4315 -8.91403 -1.76654 -25.1683 -23.9796 -24.6953 6.52035 29.0432 -3.17394 1.26174 1.18535 2.92473 13.5303 24.1905 -6.96868 0 0 0 -6.06489 -34.7164 -6.43643 -49.8441 -37.8568 -33.3579 24.4951 -34.755 -32.7223 0 0 0 -34.9785 -23.6427 -29.8073 7.7637 -17.7784 6.93846 -24.4446 -26.9142 20.2418 0 0 0 -5.95175 -20.5757 -26.4534 
10.6954 -0.9492 -40.2852 -0.88564 1.11767 131.904 13.3421 -15.9867 15.8245 -1.70054 29.3034 -0.883339 -14.1177 -9.20013 -1.82164 -25.6192 -23.9904 -25.0274 6.52748 29.1338 -3.17319 1.49414 1.38469 2.92565 13.3974 24.4192 -6.91545 0 0 0 -5.71607 -33.9507 -6.58607 -49.1709 -37.5477 -33.0818 24.202 -34.5492 -32.7332 0 0 0 -34.0634 -23.5514 -29.3465 7.88266 -17.9995 7.01249 -24.0651 -27.3112 20.8095 0 0 0 -5.92035 -20.8365 -26.7256 
10.5045 -0.9367 -40.3531 -0.893399 1.02996 132.164 12.9367 -16.2264 15.7584 -1.64883 29.1583 -0.956523 -13.7186 -9.16662 -1.74489 -25.9997 -24.0167 -25.3634 6.48773 29.0341 -3.19987 1.74005 1.69739 2.98681 13.2966 24.5904 -6.88451 0 0 0 -4.95552 -33.1571 -6.3536 -48.5682 -37.2243 -32.7927 24.0515 -34.3334 -32.5672 0 0 0 -33.1248 -23.5174 -28.8238 8.01281 -18.2514 7.0766 -23.4889 -27.8187 21.6314 0 0 0 -5.85302 -21.1436 -26.9151 
10.3036 -0.9065 -40.4259 -0.920936 0.915343 132.389 12.5983 -16.5084 15.6613 -1.6468 29.0193 -0.952717 -13.2905 -9.13525 -1.72002 -26.3797 -24.0835 -25.7015 6.51138 28.7821 -3.28455 1.9308 2.15588 3.08318 13.2116 24.7582 -6.86438 0 0 0 -3.62963 -32.4568 -5.59349 -48.0949 -36.8886 -32.4894 24.0621 -34.0979 -32.1499 0 0 0 -32.2115 -23.5636 -28.3015 8.17139 -18.5438 7.17144 -22.7809 -28.3698 22.6536 0 0 0 -5.74393 -21.4909 -27.0543 
10.1128 -0.8739 -40.4962 -0.961155 0.769864 132.542 12.3565 -16.7968 15.5967 -1.63343 28.8832 -0.941643 -12.9798 -9.01443 -1.67013 -26.7185 -24.2049 -26.0175 6.49951 28.5224 -3.36352 2.12814 2.63084 3.2222 13.1384 24.915 -6.80666 0 0 0 -2.00014 -31.7943 -4.50829 -47.7875 -36.7039 -32.3714 24.3483 -33.804 -31.4556 0 0 0 -31.4617 -23.6409 -27.9336 8.30758 -18.8909 7.24539 -22.0786 -28.8307 23.6764 0 0 0 -5.61888 -21.8252 -27.1574 
9.9068 -0.8689 -40.5766 -0.972145 0.596088 132.631 12.211 -17.0865 15.4889 -1.64206 28.8247 -0.91429 -12.7142 -8.95084 -1.55828 -26.9681 -24.3446 -26.2658 6.48135 28.2396 -3.44982 2.31721 3.10613 3.36956 13.128 25.0756 -6.75922 0 0 0 -0.114688 -31.3371 -3.05417 -47.5917 -36.5458 -32.2205 24.7479 -33.5097 -30.7728 0 0 0 -30.8342 -23.7525 -27.5683 8.42846 -19.2535 7.33386 -21.7649 -29.2223 24.4574 0 0 0 -5.48524 -22.1541 -27.2168 
9.711 -0.8638 -40.6469 -0.931757 0.451501 132.659 12.0614 -17.3656 15.3519 -1.63707 28.8706 -0.941529 -12.4454 -8.97226 -1.34668 -27.1504 -24.4815 -26.5107 6.40942 27.9825 -3.47837 2.48251 3.57986 3.54442 13.1584 25.2861 -6.72556 0 0 0 1.92374 -31.0876 -1.42394 -47.6454 -36.6108 -32.2814 25.1749 -33.2238 -30.164 0 0 0 -30.4365 -23.9474 -27.31 8.53736 -19.5996 7.3975 -21.5207 -29.6094 25.1468 0 0 0 -5.35934 -22.4713 -27.2437 
9.5226 -0.9015 -40.7147 -0.829741 0.299026 132.622 11.9603 -17.5777 15.267 -1.68057 29.0848 -0.966253 -12.1282 -9.16962 -1.13896 -27.2262 -24.579 -26.7132 6.39354 27.822 -3.51732 2.58084 3.93144 3.76136 13.2762 25.4792 -6.75811 0 0 0 3.7082 -30.9915 0.287433 -47.6221 -36.6024 -32.2842 25.5436 -33.1548 -29.7364 0 0 0 -30.3706 -24.2177 -27.1526 8.63485 -19.8053 7.44229 -21.3536 -29.9041 25.6436 0 0 0 -5.25536 -22.7258 -27.166 
9.3443 -0.9618 -40.7724 -0.647583 0.236433 132.523 11.9665 -17.6924 15.3387 -1.7131 29.4324 -0.979992 -11.8758 -9.41229 -1.06899 -27.2837 -24.6551 -26.8243 6.42233 27.8337 -3.52426 2.63716 4.15255 3.92883 13.38 25.6923 -6.79477 0 0 0 5.47829 -30.9865 2.11178 -47.6453 -36.5728 -32.2539 25.8994 -33.2015 -29.4134 0 0 0 -30.4674 -24.5009 -27.1056 8.69799 -19.9088 7.49359 -21.317 -30.1025 25.9618 0 0 0 -5.14656 -22.8959 -27.07 
9.161 -1.0346 -40.8402 -0.420997 0.220632 132.345 11.9686 -17.6491 15.4556 -1.7429 29.7926 -0.984307 -11.6402 -9.74308 -1.02184 -27.3437 -24.7237 -26.8941 6.47719 27.9516 -3.51905 2.6765 4.30374 4.12906 13.4816 25.9747 -6.83458 0 0 0 7.10889 -31.0376 3.96488 -47.6393 -36.5865 -32.2768 26.2924 -33.3337 -29.1951 0 0 0 -30.7016 -24.8288 -27.1899 8.69552 -19.9447 7.50403 -21.5186 -30.126 25.9736 0 0 0 -5.06272 -23.0085 -26.9597 
8.9877 -1.1124 -40.908 -0.213711 0.235601 132.125 11.9367 -17.5973 15.5553 -1.7789 30.192 -0.955995 -11.4114 -10.0967 -0.961289 -27.4202 -24.7648 -26.8918 6.53254 28.0937 -3.50771 2.74347 4.40551 4.31818 13.5755 26.2874 -6.89712 0 0 0 8.3546 -31.1868 5.57196 -47.639 -36.5877 -32.2959 26.6178 -33.4716 -29.0891 0 0 0 -31.0578 -25.183 -27.3918 8.64087 -19.8804 7.46808 -21.8796 -30.0088 25.7174 0 0 0 -5.02498 -23.0977 -26.8254 
8.8295 -1.1677 -40.9758 -0.0254433 0.294972 131.88 11.8695 -17.5446 15.6478 -1.83147 30.5995 -0.918399 -11.1666 -10.441 -0.870312 -27.5257 -24.8199 -26.8375 6.60779 28.2162 -3.48437 2.79439 4.52861 4.45945 13.6689 26.6105 -6.9829 0 0 0 9.31377 -31.3946 6.93714 -47.6447 -36.6092 -32.2728 26.785 -33.6438 -29.0711 0 0 0 -31.4779 -25.5325 -27.6424 8.5771 -19.7655 7.40479 -22.2485 -29.869 25.4037 0 0 0 -5.01091 -23.1865 -26.6895 
